<?xml version="1.0" encoding="utf-8"?>
<!-- Generator: Adobe Illustrator 19.0.0, SVG Export Plug-In . SVG Version: 6.00 Build 0)  -->
<svg version="1.1" id="layer" xmlns="http://www.w3.org/2000/svg" xmlns:xlink="http://www.w3.org/1999/xlink" x="0px" y="0px"
	 viewBox="-153 -46 652 652" style="enable-background:new -153 -46 652 652;" xml:space="preserve">
<style type="text/css">
	.st0{fill:#FF5100;}
	.st1{fill:#1B1B20;}
</style>
<path class="st0" d="M8.1,296.5C6.7,313.1-7.3,325.8-24,325.6h-18l-33.3,21.9v-21.9l33.9-21.9h18c5.1,0,9.4-3.9,9.9-9
	c1.2-16.8,0.9-33.6,0-50.7c-0.5-4.7-4.3-8.3-9-8.4c-23.8-1.5-47.6-1.5-71.4,0c-4.8,0.1-8.7,3.9-9,8.7c-1.2,16.8-1.2,33.6,0,50.4
	c0.5,5.1,4.8,9,9.9,9h18v21.9h-18c-16.7,0.2-30.7-12.5-32.1-29.1c-1.2-18-1.2-36,0-54c1.3-15.5,13.6-27.7,29.1-28.8
	c25-1.8,50-1.8,75,0c15.3,1.3,27.5,13.5,28.8,28.8C9,260.5,9.3,278.5,8.1,296.5L8.1,296.5z M8.1,296.5"/>
<path class="st1" d="M42.6,308.5h53.1v-12.9H58.8v-67.2H42.6v80.4V308.5z M103.2,308.5h15.6v-59.1h-15.6v59.7V308.5z M102,233.5
	c0.6,12,18.6,11.1,18-0.9C119.4,220.6,101.4,221.5,102,233.5L102,233.5z M180,249.1h-15.6l-12.9,43.8l-12.6-43.8H123l20.1,59.7h16.2
	l20.4-59.7H180z M207.9,310c13.2,0,24-7.8,25.8-18.6h-13.5c-1.5,4.2-5.7,7.5-12.3,7.5c-9,0-12.6-6-12.6-13.2v-1.2h39v-10.2
	c0-14.4-9-26.4-26.7-26.4c-17.7,0-27.3,11.7-27.3,27.9v8.1c0,16.5,10.8,26.4,27.6,26.4V310z M195.3,272.8c0-8.1,3.3-14.1,12.3-14.1
	c8.4,0,12.3,5.7,12.3,13.2v1.5h-24.6v-0.9V272.8z M276,310.3c20.1,0,32.4-13.8,33.3-30h-15c-0.9,9-6.6,16.8-18.6,16.8
	c-13.5,0-19.2-9-19.2-21.9V262c0-12.9,6-21.9,19.2-21.9c12,0,17.7,7.8,18.6,16.8h15c-0.9-16.2-13.2-30-33.6-30
	c-24,0-35.1,15.3-35.1,36v11.4c0,20.7,10.8,36,35.1,36H276z M318,308.5h15.3v-34.8c0-8.1,4.5-12,11.7-12c7.5,0,10.8,4.8,10.8,11.7
	v35.1h15.6v-37.8c0-14.1-8.1-23.1-21-23.1c-7.8,0-13.8,3.6-17.1,8.7v-31.2H318V308.5z M401.1,310c6.9,0,14.4-3,17.1-6.9v5.7h15
	v-38.1c0-13.8-9.9-23.1-24.9-23.1c-12.9,0-22.2,6.3-25.5,18h14.4c1.5-3.3,4.8-5.7,10.2-5.7c6.6,0,10.5,4.2,10.5,9.6v8.1
	c-4.4-3.4-9.8-5.2-15.3-5.1c-14.4,0-24,6-24,18.9C378.6,303.4,387.6,310,401.1,310L401.1,310z M405.3,299.8c-6.6,0-11.7-3-11.7-9
	c0-5.1,4.8-8.1,12-8.1c6.9,0,12,3,12,8.4C417.6,296.5,411.9,299.8,405.3,299.8L405.3,299.8z M462.6,308.5h10.8v-12h-6.3
	c-4.2,0-6-1.8-6-5.7V262H474v-12.6h-12.6v-16.5h-15.6v16.2h-8.4v12.6h8.4v30c0,10.5,5.4,17.1,16.8,17.1V308.5z M462.6,308.5"/>
</svg>
